<svg id="Capa_1" data-name="Capa 1" xmlns="http://www.w3.org/2000/svg" viewBox="0 0 30.43 54.33"><defs><style>.cls-1,.cls-3{fill:none;stroke:#00bcd4;stroke-linecap:round;stroke-linejoin:round;}.cls-1{stroke-width:3px;}.cls-2{fill:#00bcd4;}.cls-3{stroke-width:2px;}</style></defs><title>ico-appClaro</title><rect class="cls-1" x="769.08" y="2215.66" width="51.33" height="27.43" rx="4" ry="4" transform="translate(2244.6 -767.58) rotate(90)"/><line class="cls-1" x1="1.5" y1="8.81" x2="28.93" y2="8.81"/><line class="cls-1" x1="1.5" y1="42.2" x2="28.93" y2="42.2"/><circle class="cls-2" cx="15.22" cy="47.9" r="1.65"/><circle class="cls-3" cx="15.22" cy="25.56" r="8.83"/><path class="cls-2" d="M793.7,2230a4.22,4.22,0,0,1,.24-1.57,3.2,3.2,0,0,1,.87-1.15,4.48,4.48,0,0,0,.85-0.92,1.45,1.45,0,0,0,.21-0.75,1,1,0,0,0-1.1-1.19,1.11,1.11,0,0,0-.83.32,1.26,1.26,0,0,0-.33.88h-2a2.71,2.71,0,0,1,.87-2.1,4,4,0,0,1,4.64,0,2.56,2.56,0,0,1,.82,2,2.47,2.47,0,0,1-.27,1.13,4.64,4.64,0,0,1-.93,1.18l-0.57.54a1.92,1.92,0,0,0-.61,1.2l0,0.43h-1.8Zm-0.2,2.15a1,1,0,0,1,.32-0.77,1.25,1.25,0,0,1,1.64,0,1,1,0,0,1,.32.77,1,1,0,0,1-.31.76,1.28,1.28,0,0,1-1.65,0A1,1,0,0,1,793.5,2232.2Z" transform="translate(-779.53 -2202.21)"/></svg>